<?xml version="1.0" standalone="no"?>
<!DOCTYPE svg PUBLIC "-//W3C//DTD SVG 20010904//EN"
 "http://www.w3.org/TR/2001/REC-SVG-20010904/DTD/svg10.dtd">
<svg version="1.0" xmlns="http://www.w3.org/2000/svg"
 width="265.000000pt" height="265.000000pt" viewBox="0 0 265.000000 265.000000"
 preserveAspectRatio="xMidYMid meet">
<metadata>
Created by potrace 1.14, written by Peter Selinger 2001-2017
</metadata>
<g transform="translate(0.000000,265.000000) scale(0.100000,-0.100000)"
fill="#000000" stroke="none">
<path d="M1085 2624 c-95 -17 -266 -74 -350 -116 -372 -187 -637 -542 -712
-952 -22 -122 -22 -352 1 -468 35 -182 111 -364 215 -516 75 -109 228 -266
250 -256 68 27 244 87 276 94 22 5 69 9 105 10 109 0 110 2 110 184 0 151 0
154 -30 212 -24 46 -34 84 -44 172 -8 63 -17 116 -20 120 -3 3 -6 0 -6 -6 0
-19 -40 -14 -46 6 -3 9 -12 32 -20 50 -8 18 -10 31 -4 27 5 -3 10 -2 10 4 0 6
-9 15 -20 21 -11 6 -22 25 -25 48 -4 20 -9 45 -12 56 -4 13 -1 16 8 11 9 -6
11 6 6 59 -7 78 -18 102 -28 66 -7 -22 -7 -21 -6 8 1 35 17 41 42 16 35 -35
47 -65 47 -114 0 -32 6 -58 17 -71 15 -19 16 -15 16 67 0 59 4 89 12 91 7 3 9
11 6 19 -3 8 0 14 6 14 6 0 19 17 29 38 9 20 31 52 47 71 29 32 32 33 85 27
30 -3 78 -9 106 -14 69 -11 77 -7 59 28 -12 24 -41 40 -80 45 -107 15 -148 16
-158 6 -6 -6 -19 -11 -30 -11 -16 0 -17 5 -11 38 4 20 6 65 5 98 -1 60 0 62
36 93 60 50 63 52 63 45 0 -4 8 0 18 9 25 23 118 38 256 43 65 2 143 8 174 14
30 5 58 8 62 5 4 -2 32 -7 61 -11 30 -3 58 -10 64 -15 5 -5 18 -9 30 -9 11 0
30 -7 42 -15 12 -9 26 -15 30 -14 4 1 20 -1 34 -5 42 -12 66 -68 73 -166 6
-85 11 -109 40 -185 8 -22 16 -71 16 -110 1 -38 5 -88 9 -110 l8 -40 17 40
c31 70 106 133 106 89 0 -8 -4 -13 -9 -10 -4 3 -16 -3 -26 -14 -17 -18 -17
-26 -6 -91 16 -87 9 -132 -25 -154 -22 -14 -25 -22 -20 -50 8 -41 -1 -65 -24
-65 -19 0 -30 19 -30 50 0 28 33 80 51 80 25 0 39 22 39 61 0 34 -20 69 -39
69 -19 0 -31 -29 -31 -80 0 -37 -3 -50 -9 -41 -8 12 -11 10 -14 -10 -55 -278
-70 -342 -87 -382 -18 -40 -21 -70 -23 -208 l-2 -160 34 -27 c18 -15 62 -54
96 -88 73 -70 138 -97 173 -73 58 42 102 88 102 107 0 12 5 22 10 22 6 0 10
-5 10 -12 0 -6 11 -1 25 12 27 25 34 75 13 83 -8 3 -6 6 5 6 11 1 17 -6 17
-20 0 -49 124 116 195 260 226 457 178 987 -124 1392 -57 75 -175 194 -244
245 -66 49 -67 49 -135 -15 -43 -41 -62 -50 -62 -31 0 6 -10 10 -23 10 -14 0
-29 11 -39 28 -15 23 -18 24 -18 7 0 -16 -2 -17 -9 -5 -6 8 -8 17 -5 22 3 4
-4 13 -16 20 -11 7 -20 17 -20 21 0 15 -30 38 -40 32 -5 -3 -10 -2 -10 3 0 5
-11 15 -25 22 -14 7 -25 22 -25 32 0 11 -4 16 -10 13 -5 -3 -10 1 -10 10 0 9
-6 15 -12 13 -7 -3 -20 5 -30 16 -17 21 -17 21 -19 1 -1 -11 -1 -28 0 -37 3
-23 -5 -23 -40 3 -16 11 -36 18 -44 16 -7 -3 -16 1 -19 10 -4 8 -13 13 -21 9
-8 -3 -17 -1 -21 5 -3 6 -12 8 -19 5 -8 -3 -19 2 -25 10 -7 8 -18 14 -24 14
-6 0 -2 -8 9 -17 19 -15 19 -15 -5 -9 -14 4 -31 8 -37 8 -7 1 -13 10 -13 20 0
10 -5 18 -11 18 -6 0 -8 -7 -5 -16 5 -14 4 -15 -9 -4 -8 7 -13 16 -10 20 3 4
-2 11 -11 14 -23 9 -31 7 -15 -3 11 -7 12 -15 4 -33 l-11 -23 -18 32 c-11 18
-23 33 -27 33 -5 0 -5 -5 -1 -12 5 -8 2 -9 -12 -4 -37 15 -80 15 -159 0z m166
-31 c13 -15 12 -15 -8 -4 -24 12 -29 21 -14 21 5 0 15 -7 22 -17z m864 -2073
c3 -6 -1 -7 -9 -4 -18 7 -21 14 -7 14 6 0 13 -4 16 -10z m48 -15 c-3 -9 -8
-14 -10 -11 -3 3 -2 9 2 15 9 16 15 13 8 -4z m52 -6 c11 -16 1 -19 -13 -3 -7
8 -8 14 -3 14 5 0 13 -5 16 -11z m45 -44 l-8 -40 -1 36 c0 20 2 39 6 42 11 11
11 4 3 -38z m-70 -10 c0 -16 -6 -25 -15 -25 -8 0 -15 5 -15 11 0 5 5 7 11 3 8
-4 9 0 4 15 -4 12 -2 21 4 21 6 0 11 -11 11 -25z m37 -17 c-3 -7 -5 -2 -5 12
0 14 2 19 5 13 2 -7 2 -19 0 -25z"/>
<path d="M1615 1663 c-11 -3 -24 -10 -30 -17 -5 -6 -21 -12 -34 -11 -13 0 -26
-5 -28 -12 -6 -18 81 -27 154 -15 67 11 93 25 93 48 0 11 -16 14 -67 13 -38
-1 -77 -3 -88 -6z"/>
<path d="M1790 1611 c0 -12 6 -21 13 -21 7 0 26 -15 42 -32 24 -28 30 -30 33
-15 6 30 -31 82 -61 85 -22 3 -27 -1 -27 -17z"/>
<path d="M1098 1559 c-79 -11 -117 -33 -125 -70 -3 -16 -10 -32 -14 -35 -5 -3
-9 -11 -9 -18 0 -15 68 -38 72 -25 2 5 30 12 63 14 33 3 54 2 47 -1 -21 -9 38
-37 73 -35 16 1 40 9 53 17 22 14 24 21 18 62 -4 30 -15 56 -33 74 -29 30 -44
32 -145 17z m12 -19 c-8 -5 -22 -9 -30 -9 -10 0 -8 3 5 9 27 12 43 12 25 0z
m-25 -88 c-8 -9 -35 20 -28 31 4 6 11 3 19 -8 8 -10 12 -21 9 -23z m175 -3
c-6 -10 -21 -19 -33 -19 -20 1 -20 2 6 16 16 8 25 20 21 26 -4 7 -3 8 4 4 9
-5 9 -13 2 -27z"/>
<path d="M1515 1532 c-33 -29 -42 -54 -34 -88 10 -36 59 -86 66 -67 3 8 14 11
29 7 17 -5 24 -2 24 9 0 10 -7 13 -18 10 -10 -2 -24 3 -31 11 -12 14 -9 16 20
16 l34 1 -38 20 c-36 19 -38 21 -20 34 21 17 47 20 38 5 -4 -6 4 -27 16 -46
22 -36 23 -36 68 -29 25 4 65 7 89 6 47 -2 48 1 23 43 -31 54 -65 71 -134 69
-43 -2 -57 0 -47 7 11 7 4 10 -25 10 -24 -1 -48 -8 -60 -18z m35 -16 c0 -2 -8
-10 -17 -17 -16 -13 -17 -12 -4 4 13 16 21 21 21 13z m160 -55 c0 -18 -19 -31
-43 -31 -7 0 -4 5 6 11 9 5 17 17 17 24 0 8 5 15 10 15 6 0 10 -9 10 -19z"/>
<path d="M802 1288 c-18 -18 -15 -36 7 -48 24 -12 31 -3 24 33 -6 30 -13 33
-31 15z"/>
<path d="M1231 1268 c-5 -14 -5 -24 1 -27 13 -4 49 30 42 40 -10 17 -35 9 -43
-13z"/>
<path d="M1526 1223 c4 -21 8 -50 7 -65 0 -35 12 -36 33 -3 25 38 -3 105 -43
105 -3 0 -2 -17 3 -37z"/>
<path d="M860 1235 c-4 -25 -3 -32 9 -75 7 -28 9 -30 9 -10 1 36 -15 109 -18
85z"/>
<path d="M1237 1140 c-9 -11 -17 -25 -17 -32 0 -6 -8 -20 -17 -31 -17 -19 -17
-20 -1 -14 12 4 15 2 11 -9 -3 -7 -9 -14 -15 -14 -5 0 -7 -4 -3 -9 3 -5 1 -12
-4 -15 -5 -3 -11 1 -15 9 -6 15 -36 10 -36 -7 0 -5 4 -7 9 -3 5 3 12 1 15 -4
9 -13 59 -7 64 8 2 7 14 16 26 21 13 4 23 14 24 22 1 7 3 24 4 38 2 14 7 28
12 31 13 10 -2 29 -22 29 -10 0 -25 -9 -35 -20z"/>
<path d="M1425 1140 c-3 -5 -1 -10 4 -10 6 0 11 -8 11 -18 0 -10 6 -24 12 -30
10 -10 10 -14 0 -21 -9 -5 -6 -11 12 -19 19 -9 25 -8 30 4 3 8 3 21 -1 30 -3
9 0 20 8 24 10 7 7 11 -14 19 -15 6 -27 15 -27 21 0 13 -27 13 -35 0z"/>
<path d="M1500 1030 c0 -5 9 -10 21 -10 11 0 17 5 14 10 -3 6 -13 10 -21 10
-8 0 -14 -4 -14 -10z"/>
<path d="M1332 1007 c-8 -10 -6 -13 9 -14 19 -2 26 11 10 21 -5 3 -14 0 -19
-7z"/>
<path d="M1250 960 c-14 -4 -46 -8 -72 -9 -27 -1 -48 -5 -48 -9 0 -20 159 -56
235 -53 17 0 41 1 55 2 14 0 58 5 98 11 127 19 73 40 -132 53 -43 2 -86 6 -95
9 -9 2 -27 0 -41 -4z"/>
<path d="M1358 832 c-10 -2 -18 -8 -18 -13 0 -13 27 -11 35 2 9 13 4 16 -17
11z"/>
<path d="M1345 790 c3 -5 11 -10 16 -10 6 0 7 5 4 10 -3 6 -11 10 -16 10 -6 0
-7 -4 -4 -10z"/>
<path d="M1112 641 c-11 -6 -10 -10 4 -15 9 -4 22 -1 28 5 8 9 8 10 -1 5 -6
-3 -13 -2 -15 4 -2 5 -9 6 -16 1z"/>
<path d="M1177 622 c5 -11 7 -11 14 0 6 9 9 3 9 -19 0 -26 5 -33 31 -42 45
-16 76 -14 83 5 5 14 4 15 -8 5 -21 -17 -90 16 -94 46 -2 14 -10 21 -22 20
-11 -1 -16 -6 -13 -15z"/>
<path d="M1356 615 c4 -8 10 -12 15 -9 14 8 10 24 -6 24 -9 0 -12 -6 -9 -15z"/>
<path d="M1140 606 c0 -2 7 -7 16 -10 8 -3 12 -2 9 4 -6 10 -25 14 -25 6z"/>
<path d="M1351 554 c0 -11 3 -14 6 -6 3 7 2 16 -1 19 -3 4 -6 -2 -5 -13z"/>
<path d="M1388 543 c6 -2 18 -2 25 0 6 3 1 5 -13 5 -14 0 -19 -2 -12 -5z"/>
<path d="M925 295 c-5 -27 -9 -90 -9 -139 l-1 -89 45 -13 c65 -20 73 -19 56 9
-16 23 -62 173 -75 242 l-8 40 -8 -50z"/>
</g>
</svg>
